<?xml version="1.0" encoding="iso-8859-1"?>
<!-- Generator: Adobe Illustrator 19.0.0, SVG Export Plug-In . SVG Version: 6.00 Build 0)  -->
<svg version="1.1" id="Layer_1" xmlns="http://www.w3.org/2000/svg" xmlns:xlink="http://www.w3.org/1999/xlink" x="0px" y="0px"
	 viewBox="0 0 128 128" style="enable-background:new 0 0 128 128;" xml:space="preserve">
<g>
	<circle style="fill:#A8C954;" cx="64" cy="64" r="64"/>
	<g>
		<g>
			<path style="fill:#486380;" d="M43.033,27.556c0,0,4.445,13.335,20.003,13.335S84.15,27.556,84.15,27.556
				s-5.556,1.111-8.89,1.111s-4.445-4.445-7.779-4.445s-4.445,4.445-6.668,4.445s-4.445-6.668-6.668-6.668
				c-2.222,0-4.445,6.668-5.556,6.668C47.478,28.668,43.033,27.556,43.033,27.556z"/>
		</g>
		<path style="fill:#607484;" d="M84.15,27.556c0,0-5.556,1.111-8.89,1.111s-3.754-4.445-7.088-4.445
			c-2.196,0-2.956,0.98-3.956,2.296v14.367c0,0-0.558,0.006-0.489,0.006C79.285,40.892,84.15,27.556,84.15,27.556z"/>
		<path style="fill:#34495E;" d="M61.864,40.496c-25,1.42-32.629,43.698-32.629,48.069c0,3.018,0.831,5.237,2.824,8.268
			C34.051,99.865,43.636,106,64.636,106c0.01,0-0.303,0-0.303,0l0,0H64.5c21,0,29.373-5.167,32.744-9.167
			c0,0,0.325-0.335,0.512-0.766c2.008-2.896,1.583-6.181,1.51-7.46c-0.25-4.362-7.401-46.636-33.401-48.088L61.864,40.496z"/>
		<g>
			<path style="fill:#607484;" d="M64.469,105.667c-0.021,0-0.041-0.001-0.062-0.001c-0.025,0-0.049,0.001-0.074,0.001
				C64.405,105.667,64.474,105.667,64.469,105.667z"/>
			<path style="fill:#607484;" d="M66.04,40.499l-1.824-0.001v65.164c0,0,0.183,0.005,0.367,0.005
				c20.945-0.012,29.215-4.879,32.581-8.874c0,0,0.281-0.189,0.468-0.62c2.009-2.896,1.832-6.08,1.759-7.359
				C99.141,84.45,92.04,41.951,66.04,40.499z"/>
		</g>
		<g>
			<path style="fill:#F7F7F7;" d="M63.275,85.67c-0.768-0.028-1.601-0.103-2.5-0.221c-0.9-0.118-1.742-0.311-2.523-0.575
				c-0.782-0.266-1.438-0.598-1.97-0.996c-0.531-0.398-0.796-0.893-0.796-1.483c0-0.442,0.154-0.841,0.464-1.194
				c0.311-0.354,0.701-0.531,1.173-0.531c0.295,0,0.62,0.074,0.975,0.221c0.354,0.148,0.774,0.318,1.261,0.51
				c0.487,0.192,1.047,0.369,1.682,0.531c0.635,0.162,1.38,0.258,2.235,0.287V72.127c-0.974-0.324-1.918-0.679-2.832-1.063
				c-0.915-0.383-1.742-0.87-2.479-1.461c-0.738-0.59-1.328-1.32-1.771-2.19s-0.664-1.97-0.664-3.298c0-2.33,0.692-4.167,2.08-5.51
				c1.387-1.343,3.275-2.117,5.665-2.324v-2.168c0-0.325,0.111-0.598,0.332-0.819c0.222-0.222,0.494-0.332,0.819-0.332
				c0.324,0,0.597,0.11,0.818,0.332c0.222,0.222,0.332,0.494,0.332,0.819v2.168c0.648,0.06,1.35,0.141,2.103,0.244
				c0.752,0.104,1.453,0.272,2.103,0.509c0.648,0.236,1.188,0.531,1.615,0.885c0.428,0.354,0.642,0.797,0.642,1.328
				c0,0.442-0.155,0.834-0.465,1.173c-0.31,0.34-0.745,0.509-1.306,0.509c-0.325,0-0.635-0.051-0.93-0.154
				c-0.295-0.104-0.619-0.222-0.974-0.354c-0.354-0.133-0.752-0.266-1.194-0.398c-0.443-0.133-0.974-0.228-1.594-0.288v9.517
				c0.944,0.325,1.881,0.679,2.811,1.062c0.93,0.385,1.755,0.871,2.479,1.461c0.723,0.591,1.313,1.328,1.771,2.213
				c0.457,0.886,0.686,1.978,0.686,3.275c0,1.21-0.191,2.287-0.575,3.231c-0.384,0.944-0.922,1.77-1.615,2.479
				c-0.693,0.708-1.513,1.283-2.456,1.726c-0.945,0.442-1.978,0.738-3.099,0.886v2.213c0,0.324-0.11,0.598-0.332,0.818
				c-0.222,0.222-0.494,0.332-0.818,0.332c-0.325,0-0.598-0.11-0.819-0.332c-0.221-0.221-0.332-0.494-0.332-0.818V85.67H63.275z
				 M61.77,67.833c0.236,0.119,0.479,0.229,0.73,0.332c0.25,0.104,0.509,0.215,0.774,0.332v-8.719
				c-0.561,0.088-1.084,0.221-1.571,0.398c-0.486,0.177-0.915,0.428-1.283,0.752c-0.369,0.325-0.664,0.724-0.885,1.195
				c-0.222,0.473-0.332,1.048-0.332,1.726c0,0.62,0.088,1.159,0.266,1.616c0.177,0.457,0.391,0.841,0.642,1.15
				c0.25,0.31,0.524,0.561,0.818,0.753C61.224,67.56,61.504,67.715,61.77,67.833z M69.604,77.615c0-1.269-0.28-2.198-0.841-2.789
				c-0.561-0.59-1.121-1.018-1.682-1.283c-0.236-0.117-0.479-0.229-0.73-0.332c-0.251-0.103-0.509-0.199-0.774-0.288v9.162
				C68.261,81.642,69.604,80.153,69.604,77.615z"/>
		</g>
	</g>
</g>
<g>
</g>
<g>
</g>
<g>
</g>
<g>
</g>
<g>
</g>
<g>
</g>
<g>
</g>
<g>
</g>
<g>
</g>
<g>
</g>
<g>
</g>
<g>
</g>
<g>
</g>
<g>
</g>
<g>
</g>
</svg>
